<svg width="10" height="10" viewBox="0 0 10 10" fill="none" xmlns="http://www.w3.org/2000/svg">
<path d="M4.99998 6.34941L0.871635 2.22103C0.776889 2.12629 0.623271 2.12629 0.528558 2.22103L0.0710672 2.67849C0.0255543 2.72397 -2.2137e-07 2.78569 -2.18557e-07 2.85003C-2.15745e-07 2.91437 0.0255543 2.97609 0.0710672 3.02157L4.82844 7.77898C4.92319 7.87372 5.07681 7.87372 5.17152 7.77898L9.9289 3.0216C9.97441 2.97612 9.99997 2.9144 9.99997 2.85006C9.99997 2.78572 9.97441 2.724 9.9289 2.67852L9.47141 2.22106C9.37666 2.12632 9.22305 2.12632 9.12833 2.22106L4.99998 6.34941Z" fill="#FF6742"/>
</svg>
