<svg width="10" height="10" viewBox="0 0 10 10" fill="none" xmlns="http://www.w3.org/2000/svg">
<path d="M4.99998 6.34947L0.871635 2.22109C0.776889 2.12635 0.623271 2.12635 0.528558 2.22109L0.0710672 2.67855C0.0255543 2.72403 -2.2137e-07 2.78575 -2.18557e-07 2.85009C-2.15745e-07 2.91443 0.0255543 2.97615 0.0710672 3.02163L4.82844 7.77904C4.92319 7.87378 5.07681 7.87378 5.17152 7.77904L9.9289 3.02166C9.97441 2.97618 9.99997 2.91446 9.99997 2.85012C9.99997 2.78578 9.97441 2.72406 9.9289 2.67858L9.47141 2.22112C9.37666 2.12638 9.22305 2.12638 9.12833 2.22112L4.99998 6.34947Z" fill="white"/>
</svg>
