<svg width="10" height="6" viewBox="0 0 10 6" fill="none" xmlns="http://www.w3.org/2000/svg">
<path d="M4.99998 4.34941L0.871635 0.221032C0.776889 0.126286 0.623271 0.126286 0.528558 0.221032L0.0710672 0.67849C0.0255543 0.72397 -2.2137e-07 0.785689 -2.18557e-07 0.850029C-2.15745e-07 0.914368 0.0255543 0.976087 0.0710672 1.02157L4.82844 5.77898C4.92319 5.87372 5.07681 5.87372 5.17152 5.77898L9.9289 1.0216C9.97441 0.976119 9.99997 0.9144 9.99997 0.850061C9.99997 0.785721 9.97441 0.724002 9.9289 0.678522L9.47141 0.221064C9.37666 0.126318 9.22305 0.126318 9.12833 0.221064L4.99998 4.34941Z" fill="#231F20"/>
</svg>
