<svg width="30" height="30" viewBox="0 0 30 30" fill="none" xmlns="http://www.w3.org/2000/svg">
<path d="M21.2222 15C21.2222 18.4364 18.4364 21.2222 15 21.2222C11.5636 21.2222 8.77778 18.4364 8.77778 15C8.77778 11.5636 11.5636 8.77778 15 8.77778C18.4364 8.77778 21.2222 11.5636 21.2222 15ZM21.2222 15V17.3333C21.2222 19.4811 22.9634 21.2222 25.1111 21.2222C27.2589 21.2222 29 19.4811 29 17.3333V15C29 7.26802 22.732 1 15 1C7.26802 1 1 7.26802 1 15C1 22.732 7.26802 29 15 29H21.2222" stroke="#FF6742" stroke-width="2" stroke-linecap="round" stroke-linejoin="round"/>
</svg>
