<svg width="16" height="16" viewBox="0 0 16 16" fill="none" xmlns="http://www.w3.org/2000/svg">
<path d="M1 12H8" stroke="black" stroke-width="1.7" stroke-linecap="round"/>
<path d="M1 4H3" stroke="black" stroke-width="1.7" stroke-linecap="round"/>
<path d="M13 12H15" stroke="black" stroke-width="1.7" stroke-linecap="round"/>
<path d="M9 4H15" stroke="black" stroke-width="1.7" stroke-linecap="round"/>
<path d="M10.5 10C11.8807 10 13 11.1193 13 12.5C13 13.8807 11.8807 15 10.5 15C9.11929 15 8 13.8807 8 12.5C8 11.1193 9.11929 10 10.5 10Z" stroke="black" stroke-width="1.7" stroke-linecap="round"/>
<path d="M5.5 1C6.88071 1 8 2.11929 8 3.5C8 4.88071 6.88071 6 5.5 6C4.11929 6 3 4.88071 3 3.5C3 2.11929 4.11929 1 5.5 1Z" stroke="black" stroke-width="1.7" stroke-linecap="round"/>
</svg>
