<svg width="198" height="59" viewBox="0 0 198 59" fill="none" xmlns="http://www.w3.org/2000/svg">
<g clip-path="url(#clip0_259_2744)">
<path d="M10.9456 41.0517L11.0527 42.1958C11.3238 43.297 11.7805 44.2695 12.4298 45.1061C13.0791 45.9427 13.8426 46.6435 14.7274 47.2012C15.6122 47.7661 16.5897 48.188 17.6671 48.474C18.7446 48.7601 19.8363 48.8959 20.9351 48.8959C22.034 48.8959 23.0829 48.8316 24.0747 48.6957C25.0665 48.5598 26.0298 48.3739 26.9574 48.1451C27.885 47.9091 28.7912 47.6446 29.676 47.3371C30.5607 47.0296 31.4527 46.7078 32.3589 46.3646L36.3975 53.9085C34.9989 54.7666 33.7217 55.496 32.5587 56.0966C31.3956 56.6973 30.2254 57.1978 29.048 57.5911C27.8707 57.9844 26.622 58.2704 25.302 58.4563C23.9819 58.6423 22.4336 58.7352 20.6711 58.7352C17.3675 58.7352 14.4277 58.1918 11.8518 57.0977C9.2831 56.0037 7.12108 54.5235 5.36578 52.6643C3.61762 50.798 2.2833 48.6171 1.36284 46.1143C0.442381 43.6116 -0.0142822 40.9587 -0.0142822 38.1628C-0.0142822 35.3669 0.470922 32.7355 1.4342 30.2828C2.40461 27.8301 3.76746 25.6849 5.52989 23.8615C7.29233 22.0309 9.39726 20.5937 11.8518 19.5354C14.2993 18.4771 17.0178 17.9551 20.0075 17.9551C22.9973 17.9551 25.6445 18.4556 27.9635 19.4496C30.2753 20.4435 32.2304 21.8164 33.8216 23.5755C35.4128 25.3274 36.6401 27.3939 37.4963 29.7608C38.3526 32.1277 38.8164 34.6733 38.8948 37.3977C38.9662 38.0126 39.009 38.6204 39.0233 39.2211C39.0376 39.8218 39.0233 40.4439 38.9662 41.0803H10.9456V41.0517ZM19.7293 27.1365C18.3593 27.1365 17.1891 27.301 16.2187 27.6371C15.2483 27.966 14.4348 28.4236 13.7784 29.0028C13.1148 29.582 12.5868 30.2327 12.2015 30.9693C11.809 31.7058 11.5022 32.478 11.281 33.2861H27.1857C27.0145 32.4494 26.7719 31.67 26.4508 30.9335C26.1297 30.197 25.6944 29.5463 25.1307 28.9814C24.567 28.4165 23.8535 27.966 22.983 27.6371C22.1125 27.3081 21.0279 27.1365 19.7293 27.1365Z" fill="#FF6742"/>
<path d="M63.3121 0H79.9517V47.1943H87.3725V57.2838H68.635V55.8108C67.315 56.4973 65.9593 57.0407 64.575 57.434C63.1908 57.8273 61.7922 58.0204 60.3652 58.0204C57.4539 58.0204 54.7782 57.4984 52.3379 56.4544C49.8976 55.4104 47.8069 53.9802 46.0588 52.164C44.3106 50.3477 42.9406 48.2168 41.9631 45.7784C40.9855 43.3401 40.4932 40.7158 40.4932 37.9199C40.4932 35.124 40.9784 32.514 41.9416 30.0971C42.9121 27.6802 44.2535 25.5779 45.9803 23.7831C47.707 21.9882 49.7763 20.5796 52.188 19.5499C54.5998 18.5202 57.2541 18.0053 60.144 18.0053C61.7351 18.0053 63.2264 18.1555 64.625 18.463C66.0235 18.7705 67.3578 19.2066 68.6279 19.7715V10.0896H63.2978V0H63.3121ZM61.0002 47.8593C62.6199 47.8092 64.0827 47.3945 65.3884 46.6079C66.7014 45.8214 67.7788 44.7917 68.6422 43.5188V32.2923C67.7859 30.9909 66.68 29.9755 65.3171 29.2533C63.9614 28.5311 62.52 28.1807 61.0002 28.2022C59.723 28.1736 58.5314 28.3952 57.4182 28.8672C56.3051 29.332 55.3276 29.997 54.4785 30.855C53.6294 31.7131 52.9658 32.7428 52.4734 33.9441C51.9811 35.1454 51.7385 36.5112 51.7385 38.0271C51.7385 39.5431 51.9811 40.8803 52.4734 42.0959C52.9658 43.3115 53.6294 44.3412 54.4785 45.1849C55.3204 46.0287 56.3051 46.6794 57.4182 47.1156C58.5314 47.559 59.723 47.8021 61.0002 47.8521V47.8593Z" fill="#862555"/>
<path d="M108.486 19.1424H126.489V47.1944H131.084V57.284H114.958V54.0447C113.659 55.2246 112.139 56.1327 110.405 56.7691C108.664 57.4055 106.659 57.7273 104.383 57.7273C102.278 57.7273 100.295 57.3984 98.4323 56.7334C96.57 56.0683 94.9503 55.0673 93.566 53.7301C92.1818 52.3929 91.09 50.7197 90.298 48.7032C89.4989 46.6867 89.1064 44.3198 89.1064 41.5954V29.2248H84.1473V19.1353H100.973V41.5954C100.973 44.1482 101.622 46.0574 102.92 47.316C104.219 48.5816 105.91 49.2109 107.987 49.2109C109.456 49.2109 110.791 48.7604 111.99 47.8523C113.188 46.9441 114.059 45.7142 114.601 44.1697V29.2248H108.5V19.1353L108.486 19.1424Z" fill="#00666B"/>
<path d="M155.587 28.8742C155.365 29.6536 154.987 30.4688 154.452 31.3126C153.91 32.1563 153.211 32.9286 152.354 33.6151C151.491 34.3087 150.463 34.8879 149.279 35.3384C148.094 35.796 146.746 36.0177 145.226 36.0177C143.706 36.0177 142.272 35.7317 140.973 35.1668C139.675 34.6019 138.562 33.8296 137.627 32.8642C136.699 31.8918 135.964 30.7477 135.443 29.4319C134.915 28.1234 134.659 26.7147 134.659 25.2059C134.659 23.6971 134.93 22.3242 135.465 21.0514C136 19.7714 136.742 18.6559 137.691 17.7049C138.64 16.7467 139.76 16.0102 141.066 15.4739C142.365 14.9447 143.778 14.7016 145.312 14.7516C146.403 14.7016 147.452 14.8232 148.48 15.1235C149.507 15.4238 150.478 15.8743 151.398 16.4678H155.266V22.696L149.279 22.7246C148.794 22.1168 148.251 21.652 147.652 21.3445C147.053 21.0371 146.353 20.9012 145.54 20.9513C144.884 20.9012 144.291 20.9942 143.756 21.223C143.221 21.4447 142.757 21.7664 142.372 22.174C141.987 22.5816 141.68 23.0607 141.473 23.6185C141.259 24.1834 141.152 24.8126 141.152 25.5134C141.152 26.1355 141.266 26.7218 141.487 27.2724C141.715 27.823 142.022 28.3021 142.408 28.7097C142.8 29.1102 143.257 29.4248 143.792 29.6465C144.327 29.8681 144.912 30.004 145.54 30.054C146.068 30.004 146.546 29.8967 146.981 29.7251C147.417 29.5463 147.802 29.3247 148.144 29.0458C148.48 28.7669 148.772 28.4594 149.015 28.1162C149.258 27.773 149.443 27.4441 149.579 27.1437L154.316 28.531L154.388 28.5524L155.587 28.8813V28.8742Z" fill="white"/>
<path d="M159.204 37.2764H168.273V38.9997C169.087 38.349 170.007 37.827 171.028 37.448C172.048 37.0619 173.104 36.876 174.189 36.876C175.694 36.876 176.986 37.1406 178.063 37.6697C179.14 38.1988 179.99 39.0069 180.596 40.0938C181.017 39.6218 181.495 39.1928 182.023 38.7995C182.551 38.4134 183.115 38.0701 183.714 37.7841C184.314 37.4981 184.941 37.2764 185.598 37.1119C186.254 36.9546 186.925 36.876 187.617 36.876C190.043 36.876 191.906 37.5481 193.204 38.8925C194.503 40.2368 195.159 42.1961 195.159 44.7774V51.8923H197.971V57.1481H188.916V45.7571C188.916 44.6344 188.623 43.7478 188.045 43.1113C187.467 42.4749 186.661 42.1532 185.626 42.1532C184.913 42.1532 184.242 42.3248 183.607 42.6609C182.972 42.9969 182.344 43.5833 181.723 44.4128C181.738 44.5558 181.745 44.6988 181.745 44.8418V51.8923H184.613V57.1481H175.558V45.7213C175.558 45.185 175.473 44.6988 175.309 44.2626C175.145 43.8264 174.916 43.4546 174.617 43.1471C174.324 42.8396 173.974 42.6036 173.575 42.4249C173.175 42.2461 172.733 42.1603 172.248 42.146C171.613 42.1317 170.949 42.2747 170.264 42.5679C169.579 42.8611 168.93 43.4045 168.302 44.1982V51.8852H171.477V57.1409H159.154V51.8852H162.101V42.525H159.19V37.2693L159.204 37.2764Z" fill="white"/>
<path d="M156.058 48.0523C156.058 41.9957 151.163 37.0903 145.119 37.0903C139.075 37.0903 134.181 41.9957 134.181 48.0523C134.181 54.1089 138.369 58.764 144.206 58.9999L144.67 55.1886L144.363 54.6666C142.936 52.2569 140.931 50.2475 138.526 48.8174L137.242 48.0523L138.761 47.0869C140.945 45.6926 142.793 43.8405 144.177 41.6524L145.126 40.158L146.696 42.4962C147.752 44.0694 149.108 45.428 150.677 46.4863L153.011 48.0594L151.705 48.846C149.336 50.269 147.352 52.2497 145.925 54.6309L145.583 55.2101L146.047 59.0214C151.876 58.7854 156.072 53.973 156.072 48.0737L156.058 48.0523Z" fill="white"/>
</g>
<defs>
<clipPath id="clip0_259_2744">
<rect width="197.978" height="59" fill="white"/>
</clipPath>
</defs>
</svg>
