<svg width="10" height="10" viewBox="0 0 10 10" fill="none" xmlns="http://www.w3.org/2000/svg">
<path d="M7.09854 0H2.90645C1.08554 0 0 1.085 0 2.905V7.09C0 8.915 1.08554 10 2.90645 10H7.09353C8.91444 10 9.99998 8.915 9.99998 7.095V2.905C10.005 1.085 8.91945 0 7.09854 0ZM5.00249 6.94C3.93196 6.94 3.06153 6.07 3.06153 5C3.06153 3.93 3.93196 3.06 5.00249 3.06C6.07303 3.06 6.94346 3.93 6.94346 5C6.94346 6.07 6.07303 6.94 5.00249 6.94ZM7.96397 2.44C7.93896 2.5 7.90394 2.555 7.85892 2.605C7.80889 2.65 7.75386 2.685 7.69383 2.71C7.6338 2.735 7.56877 2.75 7.50374 2.75C7.36867 2.75 7.24361 2.7 7.14856 2.605C7.10354 2.555 7.06852 2.5 7.04351 2.44C7.0185 2.38 7.00349 2.315 7.00349 2.25C7.00349 2.185 7.0185 2.12 7.04351 2.06C7.06852 1.995 7.10354 1.945 7.14856 1.895C7.26362 1.78 7.43871 1.725 7.59879 1.76C7.6338 1.765 7.66382 1.775 7.69383 1.79C7.72385 1.8 7.75386 1.815 7.78388 1.835C7.80889 1.85 7.8339 1.875 7.85892 1.895C7.90394 1.945 7.93896 1.995 7.96397 2.06C7.98898 2.12 8.00399 2.185 8.00399 2.25C8.00399 2.315 7.98898 2.38 7.96397 2.44Z" fill="url(#paint0_linear_259_2725)"/>
<defs>
<linearGradient id="paint0_linear_259_2725" x1="5" y1="0" x2="5" y2="10" gradientUnits="userSpaceOnUse">
<stop stop-color="#FF594F"/>
<stop offset="1" stop-color="#AA6DDB"/>
</linearGradient>
</defs>
</svg>
