<svg width="11" height="11" viewBox="0 0 11 11" fill="none" xmlns="http://www.w3.org/2000/svg">
<g clip-path="url(#clip0_259_2727)">
<path fill-rule="evenodd" clip-rule="evenodd" d="M11 10.5H8.56885V6.9846C8.56885 6.06444 8.18856 5.43629 7.35231 5.43629C6.71267 5.43629 6.35695 5.86019 6.19138 6.26871C6.12929 6.41535 6.13899 6.61961 6.13899 6.82387V10.5H3.73048C3.73048 10.5 3.76153 4.27281 3.73048 3.70676H6.13899V4.77291C6.28128 4.30675 7.05091 3.64145 8.2791 3.64145C9.80285 3.64145 11 4.61859 11 6.72271V10.5ZM1.2948 2.85705H1.27928C0.503176 2.85705 0 2.33774 0 1.67948C0 1.00842 0.51805 0.5 1.30968 0.5C2.10066 0.5 2.58702 1.00714 2.60254 1.67757C2.60254 2.33582 2.10066 2.85705 1.2948 2.85705ZM0.277451 3.70676H2.42145V10.5H0.277451V3.70676Z" fill="#007EBB"/>
</g>
<defs>
<clipPath id="clip0_259_2727">
<rect width="11" height="11" fill="white"/>
</clipPath>
</defs>
</svg>
