<svg width="227" height="68" viewBox="0 0 227 68" fill="none" xmlns="http://www.w3.org/2000/svg">
<g clip-path="url(#clip0_259_2601)">
<path d="M12.5502 47.0698L12.6729 48.3816C12.9838 49.6442 13.5074 50.7593 14.2519 51.7186C14.9964 52.6778 15.8718 53.4813 16.8863 54.1208C17.9008 54.7686 19.0217 55.2523 20.2571 55.5802C21.4924 55.9082 22.7442 56.064 24.0041 56.064C25.264 56.064 26.4667 55.9902 27.6039 55.8344C28.7411 55.6786 29.8456 55.4655 30.9092 55.2031C31.9728 54.9325 33.0118 54.6292 34.0263 54.2766C35.0408 53.9241 36.0634 53.5551 37.1025 53.1616L41.7331 61.8114C40.1296 62.7953 38.6651 63.6315 37.3315 64.3203C35.998 65.009 34.6562 65.5829 33.3063 66.0338C31.9564 66.4848 30.5247 66.8127 29.0111 67.0259C27.4976 67.2391 25.7222 67.3456 23.7014 67.3456C19.9134 67.3456 16.5427 66.7225 13.5892 65.4681C10.644 64.2137 8.165 62.5165 6.15239 60.3848C4.14795 58.2449 2.61804 55.7442 1.56264 52.8746C0.50725 50.005 -0.0163574 46.9632 -0.0163574 43.7575C-0.0163574 40.5517 0.539975 37.5345 1.64446 34.7223C2.75712 31.9101 4.31976 29.4504 6.34056 27.3597C8.36135 25.2608 10.7749 23.6128 13.5892 22.3994C16.3955 21.1859 19.5125 20.5874 22.9405 20.5874C26.3685 20.5874 29.4038 21.1613 32.0628 22.301C34.7135 23.4406 36.9552 25.0148 38.7796 27.0317C40.6041 29.0405 42.0113 31.4099 42.993 34.1238C43.9748 36.8376 44.5066 39.7564 44.5966 42.8802C44.6784 43.5853 44.7275 44.2822 44.7439 44.9709C44.7602 45.6596 44.7439 46.3729 44.6784 47.1026H12.5502V47.0698ZM22.6215 31.1148C21.0506 31.1148 19.7089 31.3033 18.5962 31.6887C17.4836 32.0658 16.5509 32.5906 15.7982 33.2547C15.0373 33.9188 14.4319 34.6649 13.9901 35.5094C13.5402 36.3539 13.1884 37.2393 12.9347 38.1658H31.171C30.9746 37.2065 30.6965 36.3129 30.3283 35.4684C29.9601 34.6239 29.4611 33.8778 28.8148 33.2301C28.1684 32.5824 27.3503 32.0658 26.3522 31.6887C25.354 31.3115 24.1105 31.1148 22.6215 31.1148Z" fill="white"/>
<path d="M72.5932 0H91.6721V54.1126H100.181V65.6813H78.6965V63.9923C77.1829 64.7794 75.6285 65.4025 74.0413 65.8534C72.4541 66.3044 70.8506 66.5257 69.2143 66.5257C65.8763 66.5257 62.8083 65.9272 60.0103 64.7302C57.2122 63.5332 54.8151 61.8934 52.8107 59.8109C50.8062 57.7283 49.2354 55.2851 48.1146 52.4893C46.9937 49.6934 46.4292 46.6844 46.4292 43.4787C46.4292 40.2729 46.9855 37.2803 48.09 34.5091C49.2027 31.7379 50.7408 29.3274 52.7207 27.2695C54.7006 25.2116 57.0731 23.5964 59.8384 22.4158C62.6037 21.2351 65.6472 20.6448 68.9607 20.6448C70.7851 20.6448 72.495 20.817 74.0986 21.1695C75.7021 21.5221 77.232 22.0222 78.6883 22.6699V11.5686H72.5768V0H72.5932ZM69.9424 54.8751C71.7996 54.8177 73.4768 54.3422 74.974 53.4403C76.4793 52.5385 77.7147 51.3578 78.7047 49.8984V37.0262C77.7229 35.534 76.4548 34.3697 74.8922 33.5416C73.3377 32.7136 71.6851 32.3118 69.9424 32.3364C68.478 32.3036 67.1117 32.5578 65.8354 33.0989C64.5591 33.6318 63.4382 34.3943 62.4647 35.3782C61.4911 36.3621 60.7302 37.5427 60.1657 38.9201C59.6012 40.2975 59.323 41.8635 59.323 43.6017C59.323 45.3398 59.6012 46.873 60.1657 48.2668C60.7302 49.6606 61.4911 50.8413 62.4647 51.8088C63.4301 52.7762 64.5591 53.5223 65.8354 54.0224C67.1117 54.5308 68.478 54.8095 69.9424 54.8669V54.8751Z" fill="white"/>
<path d="M124.389 21.9484H145.031V54.1126H150.3V65.6812H131.81V61.9671C130.321 63.32 128.578 64.3612 126.59 65.0909C124.594 65.8206 122.295 66.1896 119.685 66.1896C117.272 66.1896 114.997 65.8124 112.862 65.0499C110.727 64.2874 108.869 63.1396 107.282 61.6064C105.695 60.0732 104.443 58.1547 103.535 55.8426C102.619 53.5305 102.169 50.8167 102.169 47.6929V33.5088H96.4828V21.9402H115.774V47.6929C115.774 50.6199 116.519 52.809 118.008 54.252C119.497 55.7032 121.436 56.4247 123.817 56.4247C125.502 56.4247 127.032 55.9082 128.406 54.8669C129.781 53.8256 130.779 52.4154 131.401 50.6445V33.5088H124.406V21.9402L124.389 21.9484Z" fill="white"/>
<path d="M178.395 33.1071C178.141 34.0007 177.707 34.9354 177.094 35.9029C176.472 36.8703 175.67 37.7558 174.688 38.5429C173.698 39.3382 172.52 40.0023 171.162 40.5188C169.804 41.0436 168.258 41.2977 166.515 41.2977C164.773 41.2977 163.128 40.9698 161.639 40.3221C160.15 39.6744 158.874 38.7889 157.802 37.682C156.738 36.567 155.896 35.2552 155.299 33.7466C154.693 32.2462 154.399 30.631 154.399 28.901C154.399 27.1711 154.71 25.5969 155.323 24.1375C155.937 22.6699 156.788 21.3909 157.876 20.3004C158.964 19.2018 160.248 18.3573 161.745 17.7424C163.234 17.1356 164.854 16.8569 166.613 16.9143C167.865 16.8569 169.068 16.9963 170.246 17.3406C171.424 17.685 172.537 18.2015 173.592 18.882H178.026V26.0232L171.162 26.056C170.606 25.3591 169.984 24.8262 169.297 24.4736C168.61 24.1211 167.808 23.9653 166.875 24.0227C166.123 23.9653 165.443 24.0719 164.83 24.3343C164.216 24.5884 163.684 24.9574 163.243 25.4247C162.801 25.892 162.449 26.4414 162.212 27.0809C161.966 27.7286 161.844 28.4501 161.844 29.2536C161.844 29.9669 161.975 30.6392 162.228 31.2705C162.49 31.9018 162.842 32.4511 163.284 32.9185C163.734 33.3776 164.257 33.7384 164.871 33.9925C165.484 34.2467 166.155 34.4025 166.875 34.4599C167.481 34.4025 168.029 34.2795 168.528 34.0827C169.027 33.8778 169.469 33.6236 169.861 33.3038C170.246 32.9841 170.581 32.6315 170.86 32.238C171.138 31.8444 171.35 31.4673 171.506 31.1229L176.938 32.7135L177.02 32.7381L178.395 33.1153V33.1071Z" fill="white"/>
<path d="M182.542 42.7408H192.941V44.7167C193.874 43.9706 194.929 43.3721 196.099 42.9375C197.269 42.4948 198.48 42.2816 199.723 42.2816C201.45 42.2816 202.93 42.585 204.166 43.1917C205.401 43.7984 206.375 44.7249 207.07 45.9711C207.553 45.43 208.101 44.9381 208.706 44.4871C209.312 44.0444 209.958 43.6508 210.645 43.3229C211.333 42.9949 212.053 42.7408 212.805 42.5522C213.558 42.3718 214.327 42.2816 215.121 42.2816C217.902 42.2816 220.038 43.0523 221.527 44.5937C223.016 46.1351 223.768 48.3816 223.768 51.3414V59.4993H226.992V65.5255H216.61V52.4646C216.61 51.1774 216.274 50.1607 215.612 49.431C214.949 48.7013 214.024 48.3324 212.838 48.3324C212.02 48.3324 211.251 48.5292 210.523 48.9145C209.795 49.2999 209.075 49.9722 208.363 50.9232C208.379 51.0872 208.387 51.2512 208.387 51.4152V59.4993H211.676V65.5255H201.294V52.4236C201.294 51.8087 201.196 51.2512 201.008 50.7511C200.82 50.2509 200.558 49.8246 200.214 49.472C199.879 49.1195 199.478 48.8489 199.02 48.644C198.562 48.439 198.054 48.3406 197.498 48.3242C196.77 48.3078 196.009 48.4718 195.224 48.8079C194.438 49.1441 193.694 49.7672 192.974 50.6773V59.4911H196.614V65.5173H182.485V59.4911H185.864V48.7587H182.526V42.7326L182.542 42.7408Z" fill="white"/>
<path d="M178.935 55.0965C178.935 48.152 173.322 42.5276 166.392 42.5276C159.463 42.5276 153.85 48.152 153.85 55.0965C153.85 62.0409 158.653 67.3784 165.345 67.649L165.877 63.279L165.525 62.6804C163.889 59.9174 161.59 57.6135 158.833 55.9738L157.36 55.0965L159.103 53.9896C161.606 52.3908 163.725 50.2673 165.313 47.7585L166.401 46.0449L168.201 48.7259C169.411 50.5297 170.966 52.0875 172.766 53.3009L175.441 55.1047L173.944 56.0066C171.228 57.6381 168.953 59.9092 167.317 62.6395L166.924 63.3036L167.456 67.6736C174.14 67.403 178.951 61.8852 178.951 55.1211L178.935 55.0965Z" fill="white"/>
</g>
<defs>
<clipPath id="clip0_259_2601">
<rect width="227" height="67.649" fill="white"/>
</clipPath>
</defs>
</svg>
