<svg width="151" height="45" viewBox="0 0 151 45" fill="none" xmlns="http://www.w3.org/2000/svg">
<g clip-path="url(#clip0_259_3118)">
<path d="M8.34827 31.3107L8.42991 32.1834C8.63671 33.0233 8.98501 33.765 9.48026 34.4031C9.9755 35.0412 10.5578 35.5757 11.2327 36.0011C11.9075 36.4319 12.6531 36.7537 13.4748 36.9719C14.2966 37.19 15.1293 37.2937 15.9674 37.2937C16.8055 37.2937 17.6055 37.2446 18.362 37.1409C19.1184 37.0373 19.8531 36.8955 20.5606 36.721C21.2681 36.541 21.9593 36.3392 22.6341 36.1047C23.309 35.8702 23.9892 35.6248 24.6804 35.363L27.7607 41.1168C26.694 41.7713 25.7199 42.3276 24.8328 42.7857C23.9457 43.2438 23.0532 43.6256 22.1552 43.9256C21.2572 44.2255 20.3048 44.4437 19.298 44.5855C18.2912 44.7273 17.1103 44.7982 15.766 44.7982C13.2463 44.7982 11.0041 44.3837 9.03944 43.5493C7.08023 42.7148 5.43124 41.5859 4.09245 40.1679C2.75911 38.7444 1.74141 37.081 1.03936 35.1721C0.337316 33.2632 -0.0109863 31.2398 -0.0109863 29.1074C-0.0109863 26.9749 0.359085 24.9679 1.09379 23.0972C1.83393 21.2265 2.87339 19.5903 4.21762 18.1996C5.56185 16.8034 7.16731 15.7072 9.03944 14.9C10.9061 14.0928 12.9796 13.6947 15.2599 13.6947C17.5402 13.6947 19.5593 14.0765 21.328 14.8346C23.0913 15.5927 24.5824 16.6398 25.7961 17.9815C27.0097 19.3177 27.9457 20.8938 28.5988 22.6991C29.2519 24.5043 29.6056 26.4459 29.6655 28.5238C29.7199 28.9928 29.7525 29.4564 29.7634 29.9146C29.7743 30.3727 29.7634 30.8472 29.7199 31.3326H8.34827V31.3107ZM15.0477 20.6975C14.0027 20.6975 13.1102 20.8229 12.3701 21.0793C11.6299 21.3301 11.0095 21.6792 10.5088 22.121C10.0027 22.5627 9.59999 23.059 9.3061 23.6208C9.00678 24.1825 8.77277 24.7715 8.60406 25.3878H20.7348C20.6042 24.7497 20.4191 24.1553 20.1742 23.5935C19.9293 23.0318 19.5974 22.5354 19.1674 22.1046C18.7375 21.6737 18.1933 21.3301 17.5293 21.0793C16.8654 20.8284 16.0381 20.6975 15.0477 20.6975Z" fill="#FF6742"/>
<path d="M48.2888 0H60.98V35.9956H66.6399V43.6911H52.3487V42.5676C51.3419 43.0911 50.3078 43.5056 49.252 43.8056C48.1962 44.1056 47.1296 44.2528 46.0411 44.2528C43.8207 44.2528 41.7799 43.8547 39.9186 43.0584C38.0574 42.2621 36.4628 41.1714 35.1295 39.7861C33.7961 38.4008 32.7512 36.7755 32.0056 34.9158C31.26 33.056 30.8845 31.0544 30.8845 28.9219C30.8845 26.7895 31.2546 24.7988 31.9893 22.9554C32.7294 21.112 33.7526 19.5085 35.0696 18.1396C36.3866 16.7707 37.9649 15.6963 39.8043 14.9109C41.6438 14.1256 43.6683 13.7329 45.8724 13.7329C47.086 13.7329 48.2235 13.8474 49.2901 14.0819C50.3568 14.3164 51.3745 14.6491 52.3432 15.08V7.69543H48.2779V0H48.2888ZM46.5255 36.5028C47.7609 36.4647 48.8765 36.1483 49.8724 35.5484C50.8738 34.9485 51.6956 34.1631 52.3541 33.1923V24.6297C51.701 23.6371 50.8575 22.8627 49.818 22.3118C48.784 21.761 47.6847 21.4938 46.5255 21.5101C45.5513 21.4883 44.6425 21.6574 43.7935 22.0173C42.9445 22.3718 42.1989 22.879 41.5513 23.5335C40.9037 24.188 40.3975 24.9733 40.022 25.8896C39.6465 26.8058 39.4615 27.8475 39.4615 29.0038C39.4615 30.16 39.6465 31.1799 40.022 32.107C40.3975 33.0342 40.9037 33.8195 41.5513 34.4631C42.1935 35.1067 42.9445 35.603 43.7935 35.9356C44.6425 36.2738 45.5513 36.4592 46.5255 36.4974V36.5028Z" fill="#862555"/>
<path d="M82.7436 14.6001H96.4743V35.9956H99.9791V43.6911H87.6797V41.2205C86.6892 42.1204 85.53 42.813 84.2076 43.2984C82.8797 43.7838 81.3504 44.0292 79.6143 44.0292C78.0089 44.0292 76.4959 43.7783 75.0755 43.2711C73.6551 42.7639 72.4197 42.0004 71.3639 40.9805C70.3081 39.9606 69.4755 38.6844 68.8714 37.1464C68.2618 35.6084 67.9625 33.8032 67.9625 31.7253V22.29H64.1802V14.5946H77.0129V31.7253C77.0129 33.6723 77.5082 35.1285 78.4987 36.0884C79.4892 37.0537 80.779 37.5336 82.3626 37.5336C83.4837 37.5336 84.5014 37.19 85.4157 36.4974C86.33 35.8048 86.994 34.8667 87.4076 33.6887V22.29H82.7545V14.5946L82.7436 14.6001Z" fill="#00666B"/>
<path d="M118.668 22.0228C118.499 22.6173 118.21 23.239 117.802 23.8826C117.389 24.5261 116.855 25.1151 116.202 25.6387C115.544 26.1677 114.76 26.6095 113.857 26.9531C112.953 27.3022 111.925 27.4712 110.766 27.4712C109.606 27.4712 108.512 27.2531 107.522 26.8222C106.531 26.3914 105.682 25.8023 104.97 25.0661C104.262 24.3243 103.701 23.4517 103.304 22.4482C102.901 21.4501 102.706 20.3757 102.706 19.225C102.706 18.0742 102.912 17.027 103.321 16.0562C103.729 15.08 104.295 14.2292 105.019 13.5038C105.742 12.773 106.597 12.2113 107.593 11.8022C108.583 11.3986 109.661 11.2132 110.831 11.2514C111.663 11.2132 112.463 11.3059 113.247 11.535C114.031 11.764 114.771 12.1076 115.473 12.5603H118.423V17.3106L113.857 17.3325C113.487 16.8689 113.073 16.5144 112.616 16.2799C112.159 16.0453 111.625 15.9417 111.005 15.9799C110.504 15.9417 110.053 16.0126 109.644 16.1871C109.236 16.3562 108.882 16.6016 108.589 16.9125C108.295 17.2234 108.061 17.5888 107.903 18.0142C107.74 18.445 107.658 18.925 107.658 19.4595C107.658 19.934 107.745 20.3812 107.914 20.8011C108.088 21.2211 108.322 21.5865 108.616 21.8974C108.915 22.2028 109.263 22.4427 109.672 22.6118C110.08 22.7809 110.526 22.8845 111.005 22.9227C111.408 22.8845 111.772 22.8027 112.104 22.6718C112.436 22.5355 112.73 22.3664 112.991 22.1537C113.247 21.941 113.47 21.7065 113.655 21.4447C113.84 21.1829 113.982 20.932 114.085 20.703L117.699 21.761L117.753 21.7774L118.668 22.0283V22.0228Z" fill="black"/>
<path d="M121.427 28.4312H128.344V29.7455C128.964 29.2492 129.667 28.8511 130.445 28.562C131.223 28.2675 132.028 28.1257 132.856 28.1257C134.004 28.1257 134.989 28.3275 135.811 28.7311C136.633 29.1347 137.28 29.751 137.743 30.58C138.064 30.22 138.429 29.8928 138.831 29.5928C139.234 29.2983 139.664 29.0365 140.121 28.8184C140.578 28.6002 141.057 28.4312 141.558 28.3057C142.058 28.1857 142.57 28.1257 143.098 28.1257C144.948 28.1257 146.369 28.6384 147.359 29.6637C148.35 30.6891 148.85 32.1834 148.85 34.1523V39.5789H150.995V43.5875H144.088V34.8995C144.088 34.0432 143.865 33.3669 143.424 32.8815C142.984 32.3961 142.369 32.1507 141.58 32.1507C141.035 32.1507 140.524 32.2816 140.039 32.5379C139.555 32.7943 139.076 33.2415 138.603 33.8741C138.614 33.9832 138.619 34.0923 138.619 34.2014V39.5789H140.807V43.5875H133.901V34.8722C133.901 34.4631 133.835 34.0923 133.71 33.7596C133.585 33.4269 133.411 33.1433 133.182 32.9088C132.959 32.6743 132.692 32.4943 132.388 32.3579C132.083 32.2216 131.745 32.1562 131.375 32.1452C130.891 32.1343 130.385 32.2434 129.862 32.467C129.34 32.6906 128.845 33.1051 128.366 33.7105V39.5734H130.788V43.582H121.389V39.5734H123.637V32.4343H121.416V28.4257L121.427 28.4312Z" fill="black"/>
<path d="M119.027 36.6501C119.027 32.0307 115.294 28.2893 110.684 28.2893C106.074 28.2893 102.341 32.0307 102.341 36.6501C102.341 41.2695 105.536 44.82 109.987 45L110.341 42.0931L110.107 41.695C109.019 39.857 107.489 38.3245 105.655 37.2337L104.676 36.6501L105.835 35.9138C107.5 34.8503 108.91 33.4378 109.966 31.7689L110.689 30.629L111.887 32.4124C112.692 33.6123 113.726 34.6485 114.923 35.4557L116.703 36.6556L115.707 37.2555C113.9 38.3408 112.387 39.8515 111.299 41.6677L111.038 42.1094L111.391 45.0164C115.838 44.8364 119.038 41.1659 119.038 36.6665L119.027 36.6501Z" fill="black"/>
</g>
<defs>
<clipPath id="clip0_259_3118">
<rect width="151" height="45" fill="white"/>
</clipPath>
</defs>
</svg>
