<svg width="223" height="12" viewBox="0 0 223 12" fill="none" xmlns="http://www.w3.org/2000/svg">
<path d="M222.53 6.53035C222.823 6.23746 222.823 5.76258 222.53 5.46969L217.757 0.696718C217.464 0.403825 216.99 0.403825 216.697 0.696718C216.404 0.989611 216.404 1.46449 216.697 1.75738L220.939 6.00002L216.697 10.2427C216.404 10.5356 216.404 11.0104 216.697 11.3033C216.99 11.5962 217.464 11.5962 217.757 11.3033L222.53 6.53035ZM-6.55671e-08 6.75L1.5 6.75L1.5 5.25L6.55671e-08 5.25L-6.55671e-08 6.75ZM4.5 6.75L7.5 6.75L7.5 5.25L4.5 5.25L4.5 6.75ZM10.5 6.75L13.5 6.75L13.5 5.25L10.5 5.25L10.5 6.75ZM16.5 6.75L19.5 6.75L19.5 5.25L16.5 5.25L16.5 6.75ZM22.5 6.75L25.5 6.75L25.5 5.25L22.5 5.25L22.5 6.75ZM28.5 6.75L31.5 6.75L31.5 5.25L28.5 5.25L28.5 6.75ZM34.5 6.75L37.5 6.75L37.5 5.25L34.5 5.25L34.5 6.75ZM40.5 6.75L43.5 6.75L43.5 5.25L40.5 5.25L40.5 6.75ZM46.5 6.75L49.5 6.75L49.5 5.25L46.5 5.25L46.5 6.75ZM52.5 6.75L55.5 6.75L55.5 5.25L52.5 5.25L52.5 6.75ZM58.5 6.75001L61.5 6.75001L61.5 5.25001L58.5 5.25001L58.5 6.75001ZM64.5 6.75001L67.5 6.75001L67.5 5.25001L64.5 5.25001L64.5 6.75001ZM70.5 6.75001L73.5 6.75001L73.5 5.25001L70.5 5.25001L70.5 6.75001ZM76.5 6.75001L79.5 6.75001L79.5 5.25001L76.5 5.25001L76.5 6.75001ZM82.5 6.75001L85.5 6.75001L85.5 5.25001L82.5 5.25001L82.5 6.75001ZM88.5 6.75001L91.5 6.75001L91.5 5.25001L88.5 5.25001L88.5 6.75001ZM94.5 6.75001L97.5 6.75001L97.5 5.25001L94.5 5.25001L94.5 6.75001ZM100.5 6.75001L103.5 6.75001L103.5 5.25001L100.5 5.25001L100.5 6.75001ZM106.5 6.75001L109.5 6.75001L109.5 5.25001L106.5 5.25001L106.5 6.75001ZM112.5 6.75001L115.5 6.75001L115.5 5.25001L112.5 5.25001L112.5 6.75001ZM118.5 6.75001L121.5 6.75001L121.5 5.25001L118.5 5.25001L118.5 6.75001ZM124.5 6.75001L127.5 6.75001L127.5 5.25001L124.5 5.25001L124.5 6.75001ZM130.5 6.75001L133.5 6.75001L133.5 5.25001L130.5 5.25001L130.5 6.75001ZM136.5 6.75001L139.5 6.75001L139.5 5.25001L136.5 5.25001L136.5 6.75001ZM142.5 6.75001L145.5 6.75001L145.5 5.25001L142.5 5.25001L142.5 6.75001ZM148.5 6.75001L151.5 6.75001L151.5 5.25001L148.5 5.25001L148.5 6.75001ZM154.5 6.75001L157.5 6.75001L157.5 5.25001L154.5 5.25001L154.5 6.75001ZM160.5 6.75001L163.5 6.75001L163.5 5.25001L160.5 5.25001L160.5 6.75001ZM166.5 6.75001L169.5 6.75001L169.5 5.25001L166.5 5.25001L166.5 6.75001ZM172.5 6.75002L175.5 6.75002L175.5 5.25002L172.5 5.25002L172.5 6.75002ZM178.5 6.75002L181.5 6.75002L181.5 5.25002L178.5 5.25002L178.5 6.75002ZM184.5 6.75002L187.5 6.75002L187.5 5.25002L184.5 5.25002L184.5 6.75002ZM190.5 6.75002L193.5 6.75002L193.5 5.25002L190.5 5.25002L190.5 6.75002ZM196.5 6.75002L199.5 6.75002L199.5 5.25002L196.5 5.25002L196.5 6.75002ZM202.5 6.75002L205.5 6.75002L205.5 5.25002L202.5 5.25002L202.5 6.75002ZM208.5 6.75002L211.5 6.75002L211.5 5.25002L208.5 5.25002L208.5 6.75002ZM214.5 6.75002L217.5 6.75002L217.5 5.25002L214.5 5.25002L214.5 6.75002ZM220.5 6.75002L222 6.75002L222 5.25002L220.5 5.25002L220.5 6.75002ZM222.53 6.53035C222.823 6.23746 222.823 5.76258 222.53 5.46969L217.757 0.696718C217.464 0.403825 216.99 0.403825 216.697 0.696718C216.404 0.989611 216.404 1.46449 216.697 1.75738L220.939 6.00002L216.697 10.2427C216.404 10.5356 216.404 11.0104 216.697 11.3033C216.99 11.5962 217.464 11.5962 217.757 11.3033L222.53 6.53035ZM-6.55671e-08 6.75L1.5 6.75L1.5 5.25L6.55671e-08 5.25L-6.55671e-08 6.75ZM4.5 6.75L7.5 6.75L7.5 5.25L4.5 5.25L4.5 6.75ZM10.5 6.75L13.5 6.75L13.5 5.25L10.5 5.25L10.5 6.75ZM16.5 6.75L19.5 6.75L19.5 5.25L16.5 5.25L16.5 6.75ZM22.5 6.75L25.5 6.75L25.5 5.25L22.5 5.25L22.5 6.75ZM28.5 6.75L31.5 6.75L31.5 5.25L28.5 5.25L28.5 6.75ZM34.5 6.75L37.5 6.75L37.5 5.25L34.5 5.25L34.5 6.75ZM40.5 6.75L43.5 6.75L43.5 5.25L40.5 5.25L40.5 6.75ZM46.5 6.75L49.5 6.75L49.5 5.25L46.5 5.25L46.5 6.75ZM52.5 6.75L55.5 6.75L55.5 5.25L52.5 5.25L52.5 6.75ZM58.5 6.75001L61.5 6.75001L61.5 5.25001L58.5 5.25001L58.5 6.75001ZM64.5 6.75001L67.5 6.75001L67.5 5.25001L64.5 5.25001L64.5 6.75001ZM70.5 6.75001L73.5 6.75001L73.5 5.25001L70.5 5.25001L70.5 6.75001ZM76.5 6.75001L79.5 6.75001L79.5 5.25001L76.5 5.25001L76.5 6.75001ZM82.5 6.75001L85.5 6.75001L85.5 5.25001L82.5 5.25001L82.5 6.75001ZM88.5 6.75001L91.5 6.75001L91.5 5.25001L88.5 5.25001L88.5 6.75001ZM94.5 6.75001L97.5 6.75001L97.5 5.25001L94.5 5.25001L94.5 6.75001ZM100.5 6.75001L103.5 6.75001L103.5 5.25001L100.5 5.25001L100.5 6.75001ZM106.5 6.75001L109.5 6.75001L109.5 5.25001L106.5 5.25001L106.5 6.75001ZM112.5 6.75001L115.5 6.75001L115.5 5.25001L112.5 5.25001L112.5 6.75001ZM118.5 6.75001L121.5 6.75001L121.5 5.25001L118.5 5.25001L118.5 6.75001ZM124.5 6.75001L127.5 6.75001L127.5 5.25001L124.5 5.25001L124.5 6.75001ZM130.5 6.75001L133.5 6.75001L133.5 5.25001L130.5 5.25001L130.5 6.75001ZM136.5 6.75001L139.5 6.75001L139.5 5.25001L136.5 5.25001L136.5 6.75001ZM142.5 6.75001L145.5 6.75001L145.5 5.25001L142.5 5.25001L142.5 6.75001ZM148.5 6.75001L151.5 6.75001L151.5 5.25001L148.5 5.25001L148.5 6.75001ZM154.5 6.75001L157.5 6.75001L157.5 5.25001L154.5 5.25001L154.5 6.75001ZM160.5 6.75001L163.5 6.75001L163.5 5.25001L160.5 5.25001L160.5 6.75001ZM166.5 6.75001L169.5 6.75001L169.5 5.25001L166.5 5.25001L166.5 6.75001ZM172.5 6.75002L175.5 6.75002L175.5 5.25002L172.5 5.25002L172.5 6.75002ZM178.5 6.75002L181.5 6.75002L181.5 5.25002L178.5 5.25002L178.5 6.75002ZM184.5 6.75002L187.5 6.75002L187.5 5.25002L184.5 5.25002L184.5 6.75002ZM190.5 6.75002L193.5 6.75002L193.5 5.25002L190.5 5.25002L190.5 6.75002ZM196.5 6.75002L199.5 6.75002L199.5 5.25002L196.5 5.25002L196.5 6.75002ZM202.5 6.75002L205.5 6.75002L205.5 5.25002L202.5 5.25002L202.5 6.75002ZM208.5 6.75002L211.5 6.75002L211.5 5.25002L208.5 5.25002L208.5 6.75002ZM214.5 6.75002L217.5 6.75002L217.5 5.25002L214.5 5.25002L214.5 6.75002ZM220.5 6.75002L222 6.75002L222 5.25002L220.5 5.25002L220.5 6.75002Z" fill="white"/>
</svg>
