<svg width="32" height="32" viewBox="0 0 32 32" fill="none" xmlns="http://www.w3.org/2000/svg">
<path d="M18 1C18 1 21.575 1.325 26.125 5.875C30.675 10.425 31 14 31 14" stroke="#FF6742" stroke-width="2" stroke-linecap="round"/>
<path d="M18 7C18 7 19.6334 7.46668 22.0833 9.91667C24.5332 12.3667 25 14 25 14" stroke="#FF6742" stroke-width="2" stroke-linecap="round"/>
<path d="M11.1884 6.22104L12.2836 8.18349C13.272 9.95449 12.8753 12.2777 11.3186 13.8344C11.3186 13.8344 9.43055 15.7228 12.8538 19.1462C16.2761 22.5684 18.1656 20.6815 18.1656 20.6815C19.7223 19.1248 22.0455 18.728 23.8165 19.7164L25.7789 20.8116C28.4532 22.304 28.769 26.0543 26.4185 28.405C25.006 29.8175 23.2757 30.9165 21.3629 30.9889C18.143 31.1111 12.6746 30.2962 7.18924 24.8108C1.70391 19.3254 0.888983 13.8571 1.01106 10.6371C1.08357 8.72434 2.1826 6.99402 3.59506 5.58158C5.94566 3.23097 9.69597 3.5468 11.1884 6.22104Z" stroke="#FF6742" stroke-width="2" stroke-linecap="round"/>
</svg>
