<svg width="14" height="15" viewBox="0 0 14 15" fill="none" xmlns="http://www.w3.org/2000/svg">
<path d="M7.61192 13.8568C10.6382 12.3545 13 9.86654 13 6.84147C13 3.61531 10.3137 1 7 1C3.68629 1 1 3.61531 1 6.84147C1 9.86654 3.36182 12.3545 6.38808 13.8568C6.7726 14.0477 7.2274 14.0477 7.61192 13.8568Z" stroke="#FF6742" stroke-width="1.5" stroke-linecap="round" stroke-linejoin="round"/>
<path d="M9 7C9 8.1046 8.1046 9 7 9C5.8954 9 5 8.1046 5 7C5 5.89543 5.8954 5 7 5C8.1046 5 9 5.89543 9 7Z" stroke="#FF6742" stroke-width="1.5" stroke-linecap="round" stroke-linejoin="round"/>
</svg>
