<svg width="29" height="32" viewBox="0 0 29 32" fill="none" xmlns="http://www.w3.org/2000/svg">
<path d="M15.8768 29.9279C22.6859 26.5476 28 20.9497 28 14.1433C28 6.88445 21.9559 1 14.5 1C7.04415 1 1 6.88445 1 14.1433C1 20.9497 6.31409 26.5476 13.1232 29.9279C13.9884 30.3574 15.0116 30.3574 15.8768 29.9279Z" stroke="#FF6742" stroke-width="2" stroke-linecap="round" stroke-linejoin="round"/>
<path d="M19.0005 14.4998C19.0005 16.9851 16.9858 18.9998 14.5005 18.9998C12.0151 18.9998 10.0005 16.9851 10.0005 14.4998C10.0005 12.0145 12.0151 9.99976 14.5005 9.99976C16.9858 9.99976 19.0005 12.0145 19.0005 14.4998Z" stroke="#FF6742" stroke-width="2" stroke-linecap="round" stroke-linejoin="round"/>
</svg>
