<svg width="29" height="29" viewBox="0 0 29 29" fill="none" xmlns="http://www.w3.org/2000/svg">
<path d="M14.4945 -1.14441e-05C6.48994 0.00136566 -0.00410648 6.49304 1.9483e-06 14.4897C0.00411037 22.5345 6.49131 29.0082 14.5425 29C22.5347 28.9917 29.0082 22.4891 29.0014 14.4759C28.9932 6.4724 22.5073 -1.14441e-05 14.4945 -1.14441e-05ZM24.2288 23.4864C22.9894 22.8426 21.8075 22.2291 20.6421 21.6224C21.0338 20.5508 21.4761 19.5245 21.7815 18.4598C22.0869 17.395 22.2581 16.2931 22.4882 15.1995H27.7264C27.5292 18.4337 26.3432 21.1629 24.2288 23.485V23.4864ZM1.28046 15.1926H6.37491C7.00761 17.3978 7.61017 19.5025 8.21411 21.6059C7.14318 22.1919 5.98872 22.822 4.77399 23.4864C2.65268 21.1547 1.45986 18.4171 1.28183 15.1926H1.28046ZM27.725 13.8142H22.432C22.3526 11.499 21.7432 9.35438 20.7558 7.32668C21.9458 6.70626 23.0661 6.12024 24.2315 5.5122C26.3473 7.85493 27.5401 10.5773 27.725 13.8142ZM1.27909 13.8252C1.45849 10.5801 2.65404 7.84393 4.7781 5.5067C5.95859 6.16151 7.08156 6.78468 8.21822 7.4161C7.19385 9.44655 6.67756 11.5733 6.5502 13.8252H1.27909ZM15.1423 13.8335C15.1423 12.1346 15.1313 10.4975 15.1615 8.8619C15.1642 8.73397 15.4312 8.53312 15.6038 8.49736C16.761 8.25662 17.9305 8.07641 19.085 7.81916C19.4753 7.7325 19.6355 7.8508 19.7506 8.17408C20.108 9.18105 20.5312 10.1688 20.8078 11.1978C21.0324 12.0369 21.0831 12.9214 21.2173 13.8349H15.1423V13.8335ZM7.84435 13.8376C7.90598 11.6558 8.44966 9.69417 9.40693 7.88519C10.9188 8.14932 12.365 8.39969 13.8043 8.65143V13.8376H7.84299H7.84435ZM21.1283 15.1734C20.968 17.3758 20.349 19.3443 19.3986 21.1327C18.0552 20.9167 16.798 20.7324 15.5518 20.4902C15.3861 20.4586 15.1669 20.1408 15.1587 19.9482C15.1176 19.0155 15.1409 18.0801 15.1409 17.146C15.1409 16.4954 15.1409 15.8447 15.1409 15.1734H21.1296H21.1283ZM13.8303 20.3224C12.4814 20.581 11.1735 20.8465 9.85885 21.0653C9.72327 21.0873 9.45623 20.8713 9.39597 20.7103C8.96732 19.5644 8.53594 18.4158 8.18809 17.2423C7.99363 16.5889 7.95802 15.8887 7.84983 15.1954H13.8303V20.321V20.3224ZM5.69291 24.3888C6.86244 23.7739 7.91283 23.2223 8.88379 22.7133C10.1601 24.3971 11.3447 25.9598 12.5827 27.5927C9.97937 27.2254 7.76493 26.1703 5.69291 24.3902V24.3888ZM23.3235 24.3792C21.2132 26.1799 19.0083 27.2295 16.472 27.5858C17.595 26.0396 18.6796 24.5319 19.7889 23.0434C19.8697 22.9348 20.16 22.8715 20.2888 22.9293C21.2597 23.3681 22.2143 23.8427 23.3235 24.3792ZM12.5375 1.41278C11.2489 3.02504 10.0109 4.57539 8.70028 6.21516C7.77588 5.7158 6.79397 5.18618 5.7025 4.59603C7.77451 2.8352 9.97115 1.78145 12.5389 1.41278H12.5375ZM20.2641 6.15601C18.9508 4.51899 17.7265 2.99202 16.4556 1.4059C19.0398 1.79246 21.2488 2.83244 23.292 4.6029C22.1965 5.16417 21.2118 5.66903 20.2641 6.15601ZM10.1656 6.75854C10.1218 6.67325 10.0793 6.58796 10.0355 6.50129C11.2311 5.05136 12.4252 3.60143 13.6208 2.1515C13.6865 2.19552 13.7509 2.23816 13.8166 2.28219V7.36382C12.5512 7.15473 11.3584 6.95663 10.1656 6.75854ZM15.1793 2.29457C15.2491 2.24917 15.3189 2.20378 15.3888 2.15975C16.5583 3.57529 17.7292 4.99221 18.8988 6.40775C18.8604 6.49854 18.8221 6.58933 18.7837 6.6815C17.6046 6.8961 16.4269 7.1107 15.1793 7.33906V2.29594V2.29457ZM10.2012 22.4684C10.2368 22.3804 10.2711 22.2923 10.3067 22.2043C11.4666 22.0213 12.6252 21.8384 13.8112 21.6513V26.715C13.7454 26.7522 13.6797 26.7907 13.614 26.8278C12.4759 25.3752 11.3379 23.9225 10.2012 22.4684ZM18.7645 22.3116C17.7128 24.0394 16.6008 25.4852 15.1902 26.8554V21.6637C16.3871 21.881 17.5087 22.0832 18.7645 22.3116Z" fill="#FF6742"/>
</svg>
