<svg width="16" height="16" viewBox="0 0 16 16" fill="none" xmlns="http://www.w3.org/2000/svg">
<g clip-path="url(#clip0_259_2291)">
<path d="M15.3332 8.00008C15.3332 12.0501 12.0499 15.3334 7.99984 15.3334C3.94975 15.3334 0.666504 12.0501 0.666504 8.00008C0.666504 3.94999 3.94975 0.666748 7.99984 0.666748C12.0499 0.666748 15.3332 3.94999 15.3332 8.00008ZM2.00439 8.00008C2.00439 11.3113 4.68864 13.9955 7.99984 13.9955C11.311 13.9955 13.9953 11.3113 13.9953 8.00008C13.9953 4.68889 11.311 2.00463 7.99984 2.00463C4.68864 2.00463 2.00439 4.68889 2.00439 8.00008Z" fill="#FF6742"/>
<path d="M8.00016 3.33325C7.63196 3.33325 7.3335 3.63173 7.3335 3.99992V8.31105C7.3335 8.31105 7.3335 8.48485 7.41796 8.61558C7.4745 8.72645 7.56263 8.82279 7.67843 8.88965L10.7583 10.6679C11.0772 10.8519 11.4849 10.7427 11.669 10.4238C11.853 10.1049 11.7438 9.69719 11.425 9.51312L8.66683 7.92072V3.99992C8.66683 3.63173 8.36836 3.33325 8.00016 3.33325Z" fill="#FF6742"/>
</g>
<defs>
<clipPath id="clip0_259_2291">
<rect width="16" height="16" fill="white"/>
</clipPath>
</defs>
</svg>
