<svg width="11" height="10" viewBox="0 0 11 10" fill="none" xmlns="http://www.w3.org/2000/svg">
<path fill-rule="evenodd" clip-rule="evenodd" d="M11 1.82001C10.5958 1.98734 10.1607 2.1005 9.70417 2.15106C10.1703 1.89104 10.528 1.47874 10.6965 0.987584C10.2601 1.22835 9.77778 1.4035 9.26255 1.49739C8.85191 1.0887 8.26501 0.833496 7.61548 0.833496C6.37002 0.833496 5.35957 1.77547 5.35957 2.93714C5.35957 3.10206 5.37894 3.26217 5.41768 3.41626C3.54205 3.32838 1.8795 2.49174 0.765745 1.21751C0.571403 1.52929 0.460348 1.89104 0.460348 2.27626C0.460348 3.00576 0.858721 3.6498 1.46434 4.02719C1.09503 4.01696 0.746374 3.92125 0.441626 3.76476V3.79064C0.441626 4.81026 1.21964 5.66075 2.25268 5.85336C2.06351 5.90271 1.864 5.92739 1.65804 5.92739C1.51277 5.92739 1.37072 5.91475 1.2332 5.89007C1.52051 6.72551 2.3534 7.33404 3.34125 7.35029C2.56905 7.91487 1.59541 8.25134 0.538473 8.25134C0.356399 8.25134 0.176263 8.2417 0 8.22244C0.998826 8.81833 2.18554 9.16683 3.45941 9.16683C7.61096 9.16683 9.88043 5.9617 9.88043 3.18152C9.88043 3.09003 9.8785 2.99854 9.87462 2.90885C10.3156 2.61212 10.6985 2.24195 11 1.82001Z" fill="#00AAEC"/>
</svg>
